<svg width="30" height="30" viewBox="0 0 30 30" fill="none" xmlns="http://www.w3.org/2000/svg">
<path d="M20.0825 15.7528H25.2318L24.6597 18.0223H20.0825V28.2351H17.7939V18.0223H13.2168V15.7528H17.7939V13.6286C17.7939 11.6053 18.0068 10.8711 18.405 10.1313C18.7952 9.40027 19.398 8.80249 20.1352 8.41553C20.8812 8.02063 21.6216 7.80957 23.6619 7.80957C24.2592 7.80957 24.7833 7.86631 25.2318 7.97978V10.0791H23.6619C22.1468 10.0791 21.6857 10.1676 21.2154 10.4172C20.8675 10.6011 20.6089 10.8575 20.4235 11.2025C20.1718 11.6689 20.0825 12.1262 20.0825 13.6286V15.7528Z" fill="white"/>
<path d="M27.766 0H2.23404C1.64174 0.000675754 1.0739 0.236264 0.655082 0.655082C0.236264 1.0739 0.000675754 1.64174 0 2.23404V27.766C0.000675754 28.3583 0.236264 28.9261 0.655082 29.3449C1.0739 29.7637 1.64174 29.9993 2.23404 30H27.766C28.3583 29.9993 28.9261 29.7637 29.3449 29.3449C29.7637 28.9261 29.9993 28.3583 30 27.766V2.23404C29.9993 1.64174 29.7637 1.0739 29.3449 0.655082C28.9261 0.236264 28.3583 0.000675754 27.766 0ZM28.0851 27.766C28.085 27.8506 28.0514 27.9317 27.9915 27.9915C27.9317 28.0514 27.8506 28.085 27.766 28.0851H2.23404C2.14942 28.085 2.0683 28.0514 2.00846 27.9915C1.94863 27.9317 1.91498 27.8506 1.91489 27.766V2.23404C1.91498 2.14942 1.94863 2.0683 2.00846 2.00846C2.0683 1.94863 2.14942 1.91498 2.23404 1.91489H27.766C27.8506 1.91498 27.9317 1.94863 27.9915 2.00846C28.0514 2.0683 28.085 2.14942 28.0851 2.23404V27.766Z" fill="white"/>
</svg>
