<svg width="30" height="31" viewBox="0 0 30 31" fill="none" xmlns="http://www.w3.org/2000/svg">
<path d="M27.766 0.03125H2.23404C1.64174 0.0319258 1.0739 0.267514 0.655082 0.686332C0.236264 1.10515 0.000675754 1.67299 0 2.26529V27.7972C0.000675754 28.3895 0.236264 28.9573 0.655082 29.3762C1.0739 29.795 1.64174 30.0306 2.23404 30.0312H27.766C28.3583 30.0306 28.9261 29.795 29.3449 29.3762C29.7637 28.9573 29.9993 28.3895 30 27.7972V2.26529C29.9993 1.67299 29.7637 1.10515 29.3449 0.686332C28.9261 0.267514 28.3583 0.0319258 27.766 0.03125ZM28.0851 27.7972C28.085 27.8818 28.0514 27.963 27.9915 28.0228C27.9317 28.0826 27.8506 28.1163 27.766 28.1164H2.23404C2.14942 28.1163 2.0683 28.0826 2.00846 28.0228C1.94863 27.963 1.91498 27.8818 1.91489 27.7972V2.26529C1.91498 2.18067 1.94863 2.09955 2.00846 2.03971C2.0683 1.97988 2.14942 1.94623 2.23404 1.94614H27.766C27.8506 1.94623 27.9317 1.97988 27.9915 2.03971C28.0514 2.09955 28.085 2.18067 28.0851 2.26529V27.7972Z" fill="white"/>
<path d="M26.0001 15.5663C25.9575 15.9203 25.9218 16.2753 25.8705 16.6277C25.5052 19.1438 24.4118 21.2964 22.6096 23.0824C21.1805 24.4988 19.4764 25.4383 17.5357 25.9638C17.0731 26.0892 16.8347 25.8062 16.8412 25.4301C16.8631 24.1765 16.8507 22.9221 16.8532 21.6681C16.8541 21.1387 16.7551 20.6296 16.5524 20.1406C16.3674 19.6939 16.478 19.4815 16.9505 19.3549C18.2204 19.0146 19.3521 18.4287 20.2463 17.4444C21.0665 16.5415 21.5076 15.4883 21.4069 14.2494C21.3238 13.2276 20.9172 12.3419 20.2076 11.6044C19.9941 11.3826 19.9545 11.1762 20.0707 10.8906C20.3793 10.1321 20.3014 9.39543 19.8844 8.66915C19.4907 8.79493 19.1477 8.99481 18.831 9.23647C18.6326 9.38768 18.442 9.55439 18.2703 9.73531C18.0788 9.93691 17.8787 9.9886 17.6149 9.89556C16.7091 9.57549 15.774 9.43032 14.8122 9.45315C14.0123 9.47211 13.2308 9.59962 12.4786 9.871C12.1511 9.98903 11.9149 9.9382 11.6778 9.67759C11.2931 9.25414 10.8133 8.95432 10.2905 8.72213C10.1631 8.6657 10.1024 8.69155 10.0409 8.81216C9.68715 9.50398 9.65057 10.2105 9.94706 10.9268C10.0469 11.1676 10.0262 11.3602 9.84508 11.5536C8.07475 13.4443 8.17501 16.0341 10.0852 17.8011C10.8348 18.4942 11.7161 18.9543 12.6856 19.255C13.0931 19.3812 13.1581 19.4652 13.1555 19.8985C13.1547 20.0842 13.1671 20.2755 13.1275 20.4542C12.9976 21.0345 12.4915 21.411 11.8942 21.4213C11.2638 21.4325 10.7216 21.2055 10.2199 20.8488C9.83604 20.5757 9.4509 20.3035 9.02876 20.0674C9.05372 20.1118 9.07481 20.1592 9.1045 20.2001C9.52191 20.7726 9.91952 21.3614 10.469 21.8237C10.8972 22.1838 11.3822 22.3755 11.9463 22.3595C12.1968 22.3526 12.4476 22.3544 12.6981 22.36C12.9825 22.3664 13.1525 22.5327 13.1542 22.8183C13.1585 23.7212 13.159 24.6241 13.1542 25.527C13.1525 25.8725 12.8982 26.0668 12.5655 25.9776C9.0038 25.0221 6.45245 22.864 4.94376 19.4983C4.15843 17.746 3.85032 15.8893 4.06806 13.9832C4.54012 9.85377 6.66976 6.86205 10.3963 5.02869C11.6085 4.43207 12.9064 4.12062 14.2567 4.03791C14.32 4.03403 14.3819 4.01292 14.4443 4C14.8165 4 15.1888 4 15.5614 4C15.9577 4.04782 16.3562 4.08055 16.7495 4.14603C18.8374 4.4928 20.6895 5.35349 22.2701 6.76384C24.2642 8.54336 25.4712 10.7605 25.8705 13.4102C25.9226 13.7549 25.9575 14.1021 26.0001 14.448V15.5658V15.5663ZM12.2506 23.2637C12.1765 23.2603 12.1266 23.2538 12.0776 23.2568C11.0461 23.3141 10.2014 22.9101 9.52449 22.1635C9.10278 21.6983 8.73787 21.1809 8.34585 20.6881C8.12294 20.4081 7.91467 20.1135 7.66509 19.8602C7.53384 19.7271 7.32341 19.6754 7.15602 19.5746C7.03338 19.5009 6.87933 19.4311 6.81564 19.3174C6.64265 19.0081 6.89611 18.6859 7.28339 18.6868C8.35402 18.6889 9.29814 19.0499 10.1497 19.6844C10.4251 19.8895 10.707 20.0868 10.9936 20.275C11.2763 20.4607 11.5935 20.5434 11.9325 20.5184C12.121 20.5046 12.2286 20.3935 12.2617 20.2078C12.2949 20.0213 12.14 20.0269 12.035 19.9886C11.09 19.6444 10.2332 19.1542 9.48705 18.4744C7.34235 16.5213 7.08071 13.48 8.87815 11.2895C8.99348 11.1491 9.02661 11.0393 8.97799 10.854C8.69957 9.79174 8.88848 8.81173 9.55031 7.93037C9.74051 7.67708 9.88639 7.63529 10.1829 7.7292C10.8959 7.95579 11.5332 8.31591 12.0844 8.82121C12.2148 8.94053 12.3207 8.97198 12.498 8.91986C14.1599 8.43007 15.8265 8.42748 17.4901 8.9134C17.664 8.96423 17.7819 8.95475 17.9252 8.82207C18.4729 8.31376 19.1133 7.95622 19.8254 7.72877C20.1142 7.63658 20.2669 7.67751 20.4447 7.91314C21.1181 8.8057 21.3105 9.79648 21.0243 10.8756C20.9839 11.0289 20.9942 11.1297 21.1018 11.2572C22.4676 12.8791 22.7068 15.1092 21.7068 16.9374C20.995 18.2388 19.8969 19.1171 18.5702 19.7288C18.2346 19.8835 17.8838 20.0067 17.5306 20.148C17.5409 20.1971 17.5538 20.244 17.5598 20.2923C17.6231 20.7872 17.7255 21.2813 17.7393 21.778C17.7672 22.7731 17.747 23.7699 17.747 24.7658C17.747 24.8214 17.7543 24.8765 17.7599 24.9545C17.849 24.9282 17.9234 24.9089 17.9966 24.8847C22.8841 23.2745 25.8886 18.175 24.9217 13.1311C23.7934 7.25147 17.8838 3.63901 12.1447 5.32118C7.27005 6.75005 4.1808 11.651 5.05306 16.6815C5.68519 20.3267 7.7292 22.9389 11.0766 24.5164C11.4484 24.6917 11.8426 24.8193 12.2506 24.9786V23.2642V23.2637Z" fill="white"/>
</svg>
