<svg width="30" height="31" viewBox="0 0 30 31" fill="none" xmlns="http://www.w3.org/2000/svg">
<path d="M27.766 0.03125H2.23404C1.64174 0.0319258 1.0739 0.267514 0.655082 0.686332C0.236264 1.10515 0.000675754 1.67299 0 2.26529V27.7972C0.000675754 28.3895 0.236264 28.9573 0.655082 29.3762C1.0739 29.795 1.64174 30.0306 2.23404 30.0312H27.766C28.3583 30.0306 28.9261 29.795 29.3449 29.3762C29.7637 28.9573 29.9993 28.3895 30 27.7972V2.26529C29.9993 1.67299 29.7637 1.10515 29.3449 0.686332C28.9261 0.267514 28.3583 0.0319258 27.766 0.03125ZM28.0851 27.7972C28.085 27.8818 28.0514 27.963 27.9915 28.0228C27.9317 28.0826 27.8506 28.1163 27.766 28.1164H2.23404C2.14942 28.1163 2.0683 28.0826 2.00846 28.0228C1.94863 27.963 1.91498 27.8818 1.91489 27.7972V2.26529C1.91498 2.18067 1.94863 2.09955 2.00846 2.03971C2.0683 1.97988 2.14942 1.94623 2.23404 1.94614H27.766C27.8506 1.94623 27.9317 1.97988 27.9915 2.03971C28.0514 2.09955 28.085 2.18067 28.0851 2.26529V27.7972ZM9.57447 12.4782V22.691C9.57447 22.9449 9.47359 23.1884 9.29404 23.368C9.11448 23.5476 8.87095 23.6484 8.61702 23.6484C8.36309 23.6484 8.11956 23.5476 7.94 23.368C7.76045 23.1884 7.65957 22.9449 7.65957 22.691V12.4782C7.65957 12.2243 7.76045 11.9808 7.94 11.8012C8.11956 11.6216 8.36309 11.5208 8.61702 11.5208C8.87095 11.5208 9.11448 11.6216 9.29404 11.8012C9.47359 11.9808 9.57447 12.2243 9.57447 12.4782ZM23.617 16.9463V22.691C23.617 22.9449 23.5161 23.1884 23.3366 23.368C23.157 23.5476 22.9135 23.6484 22.6596 23.6484C22.4056 23.6484 22.1621 23.5476 21.9826 23.368C21.803 23.1884 21.7021 22.9449 21.7021 22.691V16.9463C21.7021 16.0152 21.3323 15.1223 20.6739 14.4639C20.0155 13.8055 19.1226 13.4357 18.1915 13.4357C17.2604 13.4357 16.3675 13.8055 15.7091 14.4639C15.0507 15.1223 14.6809 16.0152 14.6809 16.9463V22.691C14.6809 22.9449 14.58 23.1884 14.4004 23.368C14.2209 23.5476 13.9773 23.6484 13.7234 23.6484C13.4695 23.6484 13.2259 23.5476 13.0464 23.368C12.8668 23.1884 12.766 22.9449 12.766 22.691V12.4782C12.766 12.2243 12.8668 11.9808 13.0464 11.8012C13.2259 11.6216 13.4695 11.5208 13.7234 11.5208C13.9773 11.5208 14.2209 11.6216 14.4004 11.8012C14.58 11.9808 14.6809 12.2243 14.6809 12.4782V12.8144C15.4694 12.143 16.4338 11.7115 17.4599 11.5709C18.486 11.4303 19.5308 11.5866 20.4709 12.0213C21.411 12.4559 22.2069 13.1508 22.7644 14.0236C23.3219 14.8964 23.6178 15.9106 23.617 16.9463ZM10.2128 7.37168C10.2128 7.68728 10.1192 7.9958 9.94383 8.25822C9.76849 8.52064 9.51927 8.72517 9.22769 8.84595C8.9361 8.96673 8.61525 8.99833 8.30571 8.93676C7.99616 8.87519 7.71183 8.72321 7.48866 8.50004C7.26549 8.27687 7.11351 7.99253 7.05194 7.68299C6.99037 7.37345 7.02197 7.05259 7.14275 6.76101C7.26352 6.46943 7.46805 6.2202 7.73047 6.04486C7.99289 5.86952 8.30141 5.77593 8.61702 5.77593C9.0401 5.7764 9.44571 5.94467 9.74487 6.24383C10.044 6.54299 10.2123 6.9486 10.2128 7.37168Z" fill="white"/>
</svg>
