<svg width="200" height="30" viewBox="0 0 200 30" fill="none" xmlns="http://www.w3.org/2000/svg">
<path d="M17.52 6.97V4.09H12.87L8.94 13.03C8.49 12.97 7.68 12.85 7.32 12.82V6.97H9V4.09H1.17V6.97H3.33V22.12H1.17V25H9V22.12H7.32V16.09C8.88 16.15 9.78 16.45 10.83 18.82L13.59 25H18.39V22.12H16.56L14.52 17.71C13.71 15.94 13.14 15.13 12.33 14.32L15.69 6.97H17.52ZM20.6742 14.44H23.7342V13.03C24.5442 12.85 25.3242 12.76 25.9842 12.76C27.6042 12.76 28.0242 13.21 28.0242 15.1V15.58C26.5542 15.61 25.4442 15.67 24.4542 15.79C21.3942 16.15 19.7742 17.44 19.7742 20.68V20.92C19.7742 23.53 20.8542 25.27 23.7042 25.27C25.8342 25.27 27.2142 24.49 28.2042 23.71H28.2642L28.5342 25H33.8442V22.12H31.8642V15.22C31.8642 10.66 29.7642 9.64 26.4942 9.64C24.1542 9.64 21.6942 10.33 20.6742 10.66V14.44ZM28.0242 20.95C27.3342 21.61 26.4342 22.21 25.1142 22.21C24.2442 22.21 23.5842 21.82 23.5842 20.5C23.5842 19.27 24.0642 18.58 25.3242 18.34C25.9542 18.22 26.4642 18.16 28.0242 18.1V20.95ZM36.6851 20.86C36.6851 24.52 37.9751 25.27 40.8851 25.27C42.3851 25.27 43.9151 24.91 44.4551 24.7L43.9451 21.76C43.5851 21.82 42.4751 22.03 41.8751 22.03C41.0351 22.03 40.6451 21.94 40.6451 20.83V12.79H43.9751L44.4251 9.91H40.6451V5.65L37.0151 6.01L36.7151 9.91H34.3751V12.79H36.6851V20.86ZM46.2335 17.59C46.2335 22.78 47.4935 25.27 52.5035 25.27C55.2335 25.27 57.3935 24.55 58.1135 24.19L57.5135 21.4C55.9235 21.88 54.6035 22.21 53.1035 22.21C50.9135 22.21 50.1935 21.22 50.1635 18.25V18.04C51.2735 18.31 53.1335 18.52 54.1835 18.52C57.6635 18.52 58.4735 17.56 58.4735 14.5C58.4735 12.67 57.6935 9.55 52.7435 9.55C47.4935 9.55 46.2335 12.61 46.2335 17.59ZM50.2535 15.43C50.4635 13.12 51.3035 12.43 52.6535 12.43C54.0035 12.43 54.6335 13.18 54.6335 14.38C54.6335 15.4 54.3635 15.88 53.1335 15.88C52.2035 15.88 50.9735 15.67 50.2535 15.43ZM70.2398 25V22.12H67.4198V6.97H70.2398V4.09H60.6098V6.97H63.4298V22.12H60.6098V25H70.2398ZM71.6058 6.22H73.5258V20.89C73.5258 24.49 74.7258 25.27 77.0958 25.27C78.2058 25.27 79.5258 25.03 80.0958 24.82L79.7058 21.88C79.4958 21.91 78.8958 22.03 78.4458 22.03C77.8158 22.03 77.4858 21.85 77.4858 20.71V3.34H71.6058V6.22ZM81.2006 12.79H84.1706V22.12H81.4706V25H90.4106V22.12H88.1006V9.91H81.2006V12.79ZM83.7506 7.33H87.8606V4.09H83.7506V7.33ZM100.148 12.79H101.588V20.8C100.898 21.43 99.9082 22.03 98.8582 22.03C97.8682 22.03 97.3882 21.52 97.3882 20.14V9.91H91.4182V12.79H93.4282V21.13C93.4282 24.16 95.1382 25.27 97.2982 25.27C99.4882 25.27 100.748 24.49 101.768 23.71H101.858L102.128 25H107.558V22.12H105.548V9.91H100.148V12.79ZM116.896 14.5H119.896V10.48C118.846 10.12 116.536 9.64 114.406 9.64C111.406 9.64 109.306 10.54 109.306 13.93C109.306 16.87 110.716 18.01 114.316 18.91L114.676 19C116.416 19.48 116.776 19.93 116.776 20.77C116.776 21.85 116.176 22.18 114.676 22.18C113.086 22.18 110.926 21.64 109.606 21.28L109.006 24.31C110.056 24.64 112.126 25.27 115.156 25.27C118.336 25.27 120.556 24.22 120.556 20.77C120.556 17.86 119.386 16.87 115.576 15.88L115.216 15.79C113.356 15.31 113.086 14.71 113.086 13.99C113.086 13.24 113.536 12.67 114.916 12.67C115.576 12.67 116.236 12.76 116.896 12.91V14.5ZM129.65 25V22.12H128.15V14.11C128.84 13.48 129.8 12.88 130.88 12.88C131.87 12.88 132.35 13.42 132.35 14.8V25H138.32V22.12H136.31V13.69C136.31 10.75 134.57 9.64 132.41 9.64C130.25 9.64 128.99 10.42 128.15 11.11H128.06C128.06 11.11 128.15 9.85 128.15 8.26V3.34H122.27V6.22H124.19V22.12H122.18V25H129.65ZM148.47 25H155.07V22.12H153.45L151.98 19.12C151.29 17.77 150.69 17.2 150.09 16.69L152.61 12.79H154.26V9.91H147.51V12.79H148.44L148.02 13.51L146.94 15.37C146.52 15.25 145.53 15.16 145.23 15.13V3.34H139.35V6.22H141.27V22.12H139.26V25H146.73V22.12H145.23V18.4C147.12 18.43 147.69 18.94 148.5 20.56L149.25 22.12H148.47V25ZM156.23 12.79H159.2V22.12H156.5V25H165.44V22.12H163.13V9.91H156.23V12.79ZM158.78 7.33H162.89V4.09H158.78V7.33ZM166.778 12.79H168.848V22.12H166.927V25H174.218V22.12H172.808V14.11C173.498 13.48 174.458 12.88 175.568 12.88C176.558 12.88 177.038 13.42 177.038 14.8V25H182.978V22.12H180.998V14.08C180.998 10.75 179.258 9.64 177.098 9.64C174.908 9.64 173.647 10.42 172.628 11.2H172.568L172.268 9.91H166.778V12.79ZM185.498 14.44H188.558V13.03C189.368 12.85 190.148 12.76 190.808 12.76C192.428 12.76 192.848 13.21 192.848 15.1V15.58C191.378 15.61 190.268 15.67 189.278 15.79C186.218 16.15 184.598 17.44 184.598 20.68V20.92C184.598 23.53 185.678 25.27 188.528 25.27C190.658 25.27 192.038 24.49 193.028 23.71H193.088L193.358 25H198.668V22.12H196.688V15.22C196.688 10.66 194.588 9.64 191.318 9.64C188.978 9.64 186.518 10.33 185.498 10.66V14.44ZM192.848 20.95C192.158 21.61 191.258 22.21 189.938 22.21C189.068 22.21 188.408 21.82 188.408 20.5C188.408 19.27 188.888 18.58 190.148 18.34C190.778 18.22 191.288 18.16 192.848 18.1V20.95Z" fill="white"/>
</svg>
